<svg xmlns="http://www.w3.org/2000/svg" width="78" height="78" viewBox="0 0 78 78" fill="none">
  <g clip-path="url(#clip0_2123_2612)">
    <rect width="77.2983" height="77.2983" rx="38.6491" fill="#FFD6D6"/> <!-- pastel pink -->
    <path d="M16.9298 18.536C16.9298 14.0199 70.2632 14.0199 70.2632 18.536C74.7076 18.536 74.7076 81.7618 70.2632 81.7618C70.2632 86.278 16.9298 86.278 16.9298 81.7618C12.4854 81.7618 12.4854 18.536 16.9298 18.536Z" fill="#F28B82"/>
    <path d="M39.1195 25.796L20.4534 20.7944L18.8529 26.7676L37.519 31.7691L39.1195 25.796Z" fill="#4A4A4A"/>
    <path d="M56.8437 20.7943L38.1776 25.7959L39.7781 31.769L58.4442 26.7675L56.8437 20.7943Z" fill="#4A4A4A"/>
    <path d="M27.0539 50.2442C33.4575 50.2442 38.6487 45.053 38.6487 38.6494C38.6487 32.2458 33.4575 27.0547 27.0539 27.0547C20.6503 27.0547 15.4592 32.2458 15.4592 38.6494C15.4592 45.053 20.6503 50.2442 27.0539 50.2442Z" fill="#FFF8F8"/>
    <path d="M50.2435 50.2442C56.6471 50.2442 61.8383 45.053 61.8383 38.6494C61.8383 32.2458 56.6471 27.0547 50.2435 27.0547C43.8399 27.0547 38.6488 32.2458 38.6488 38.6494C38.6488 45.053 43.8399 50.2442 50.2435 50.2442Z" fill="#FFF8F8"/>
    <path d="M27.0544 45.6061C30.8965 45.6061 34.0112 42.4914 34.0112 38.6492C34.0112 34.8071 30.8965 31.6924 27.0544 31.6924C23.2122 31.6924 20.0975 34.8071 20.0975 38.6492C20.0975 42.4914 23.2122 45.6061 27.0544 45.6061Z" fill="#6D6D6D"/>
    <path d="M50.2439 45.6061C54.0861 45.6061 57.2008 42.4914 57.2008 38.6492C57.2008 34.8071 54.0861 31.6924 50.2439 31.6924C46.4018 31.6924 43.2871 34.8071 43.2871 38.6492C43.2871 42.4914 46.4018 45.6061 50.2439 45.6061Z" fill="#6D6D6D"/>
  </g>
  <defs>
    <clipPath id="clip0_2123_2612">
      <rect width="77.2983" height="77.2983" rx="38.6491" fill="white"/>
    </clipPath>
  </defs>
</svg>