<svg width="78" height="78" viewBox="0 0 78 78" fill="none" xmlns="http://www.w3.org/2000/svg">
  <g clip-path="url(#clip0_2123_2620)">
    <!-- Softer pastel green background -->
    <rect width="77.3" height="77.3" rx="38.65" fill="#B8DCC2"/>
    
    <!-- Face without border, muted pastel beige -->
    <path d="M2.75356 17.2236C2.75356 12.7679 56.2177 12.7679 56.2177 17.2236C60.6731 17.2236 60.6731 79.6037 56.2177 79.6037C56.2177 84.0594 2.75356 84.0594 2.75356 79.6037C-1.70179 79.6037 -1.70179 17.2236 2.75356 17.2236Z" fill="#E7E2CB"/>
    
    <!-- Eyes: white sclera -->
    <path d="M27.0548 50.2452C33.4586 50.2452 38.6498 45.0539 38.6498 38.6502C38.6498 32.2464 33.4586 27.0552 27.0548 27.0552C20.6511 27.0552 15.4598 32.2464 15.4598 38.6502C15.4598 45.0539 20.6511 50.2452 27.0548 50.2452Z" fill="#FFFFFF"/>
    <path d="M50.2449 50.2452C56.6486 50.2452 61.8399 45.0539 61.8399 38.6502C61.8399 32.2464 56.6486 27.0552 50.2449 27.0552C43.8412 27.0552 38.6499 32.2464 38.6499 38.6502C38.6499 45.0539 43.8412 50.2452 50.2449 50.2452Z" fill="#FFFFFF"/>
    
    <!-- Pupils: softer black -->
    <path d="M27.0551 45.6069C30.8973 45.6069 34.0121 42.4921 34.0121 38.6499C34.0121 34.8076 30.8973 31.6929 27.0551 31.6929C23.2128 31.6929 20.0981 34.8076 20.0981 38.6499C20.0981 42.4921 23.2128 45.6069 27.0551 45.6069Z" fill="#4A4A4A"/>
    <path d="M50.245 45.6069C54.0873 45.6069 57.202 42.4921 57.202 38.6499C57.202 34.8076 54.0873 31.6929 50.245 31.6929C46.4028 31.6929 43.288 34.8076 43.288 38.6499C43.288 42.4921 46.4028 45.6069 50.245 45.6069Z" fill="#4A4A4A"/>
    
    <!-- Mouth: muted charcoal -->
    <path d="M47.926 58.7485H30.92C29.6392 58.7485 28.601 59.7868 28.601 61.0675V63.3865C28.601 64.6673 29.6392 65.7055 30.92 65.7055H47.926C49.2067 65.7055 50.245 64.6673 50.245 63.3865V61.0675C50.245 59.7868 49.2067 58.7485 47.926 58.7485Z" fill="#5A5A5A"/>
  </g>
  <defs>
    <clipPath id="clip0_2123_2620">
      <rect width="77.3" height="77.3" rx="38.65" fill="white"/>
    </clipPath>
  </defs>
</svg>
