<svg width="78" height="78" viewBox="0 0 78 78" fill="none" xmlns="http://www.w3.org/2000/svg">
  <g clip-path="url(#clip0_2123_2627)">
    <!-- Softer pastel background -->
    <rect width="77.3" height="77.3" rx="38.65" fill="#F9E7D9"/>
    <!-- Face shape without border, pastel yellow -->
    <path d="M12.1397 19.8306C12.1397 15.3748 65.6039 15.3748 65.6039 19.8306C70.0592 19.8306 70.0592 82.2106 65.6039 82.2106C65.6039 86.6664 12.1397 86.6664 12.1397 82.2106C7.68438 82.2106 7.68438 19.8306 12.1397 19.8306Z" fill="#F7DFA9"/>
    <!-- Eyes whites -->
    <path d="M27.0551 50.2452C33.4588 50.2452 38.6501 45.0539 38.6501 38.6502C38.6501 32.2464 33.4588 27.0552 27.0551 27.0552C20.6513 27.0552 15.4601 32.2464 15.4601 38.6502C15.4601 45.0539 20.6513 50.2452 27.0551 50.2452Z" fill="white"/>
    <path d="M50.245 50.2452C56.6488 50.2452 61.84 45.0539 61.84 38.6502C61.84 32.2464 56.6488 27.0552 50.245 27.0552C43.8413 27.0552 38.65 32.2464 38.65 38.6502C38.65 45.0539 43.8413 50.2452 50.245 50.2452Z" fill="white"/>
    <!-- Pupils -->
    <path d="M27.055 45.6069C30.8973 45.6069 34.012 42.4921 34.012 38.6499C34.012 34.8076 30.8973 31.6929 27.055 31.6929C23.2128 31.6929 20.098 34.8076 20.098 38.6499C20.098 42.4921 23.2128 45.6069 27.055 45.6069Z" fill="#2E2E2E"/>
    <path d="M50.2451 45.6069C54.0874 45.6069 57.2021 42.4921 57.2021 38.6499C57.2021 34.8076 54.0874 31.6929 50.2451 31.6929C46.4029 31.6929 43.2881 34.8076 43.2881 38.6499C43.2881 42.4921 46.4029 45.6069 50.2451 45.6069Z" fill="#2E2E2E"/>
    <!-- Smile mouth -->
    <path d="M27.0551 57.9751C34.7851 63.1284 42.5151 63.1284 50.2451 57.9751" stroke="#4A4A4A" stroke-width="3.55789" stroke-linecap="round"/>
  </g>
  <defs>
    <clipPath id="clip0_2123_2627">
      <rect width="77.3" height="77.3" rx="38.65" fill="white"/>
    </clipPath>
  </defs>
</svg>
