<svg width="78" height="78" viewBox="0 0 78 78" fill="none" xmlns="http://www.w3.org/2000/svg">
  <g clip-path="url(#clip0_2123_2634)">
    <rect width="77.3" height="77.3" rx="38.65" fill="#D9DFFF"/>
    <path d="M24.1333 14.6162C24.1333 10.1605 77.5974 10.1605 77.5974 14.6162C82.0528 14.6162 82.0528 76.9963 77.5974 76.9963C77.5974 81.452 24.1333 81.452 24.1333 76.9963C19.6779 76.9963 19.6779 14.6162 24.1333 14.6162Z" fill="#A6D7E9"/>
    <path d="M37.5203 20.7947L18.8538 25.7964L20.4544 31.7697L39.1209 26.768L37.5203 20.7947Z" fill="black"/>
    <path d="M58.4458 25.7966L39.7792 20.7949L38.1787 26.7682L56.8452 31.7699L58.4458 25.7966Z" fill="black"/>
    <path d="M27.055 50.2452C33.4588 50.2452 38.65 45.0539 38.65 38.6502C38.65 32.2464 33.4588 27.0552 27.055 27.0552C20.6513 27.0552 15.46 32.2464 15.46 38.6502C15.46 45.0539 20.6513 50.2452 27.055 50.2452Z" fill="white"/>
    <path d="M50.2448 50.2452C56.6486 50.2452 61.8398 45.0539 61.8398 38.6502C61.8398 32.2464 56.6486 27.0552 50.2448 27.0552C43.8411 27.0552 38.6498 32.2464 38.6498 38.6502C38.6498 45.0539 43.8411 50.2452 50.2448 50.2452Z" fill="white"/>
    <path d="M27.055 45.6078C30.8972 45.6078 34.012 42.4931 34.012 38.6508C34.012 34.8086 30.8972 31.6938 27.055 31.6938C23.2127 31.6938 20.098 34.8086 20.098 38.6508C20.098 42.4931 23.2127 45.6078 27.055 45.6078Z" fill="black"/>
    <path d="M50.2449 45.6078C54.0871 45.6078 57.2019 42.4931 57.2019 38.6508C57.2019 34.8086 54.0871 31.6938 50.2449 31.6938C46.4027 31.6938 43.2879 34.8086 43.2879 38.6508C43.2879 42.4931 46.4027 45.6078 50.2449 45.6078Z" fill="black"/>
  </g>
  <defs>
    <clipPath id="clip0_2123_2634">
      <rect width="77.3" height="77.3" rx="38.65" fill="white"/>
    </clipPath>
  </defs>
</svg>
