<svg xmlns="http://www.w3.org/2000/svg" viewBox="0 0 48 48" role="img" aria-labelledby="title desc">
  <title id="title">Reframe Thoughts</title>
  <desc id="desc">A thought bubble containing two turning arrows.</desc>
  <defs>
    <radialGradient id="cognitive-reframe-thoughts-glow" cx="35%" cy="26%" r="75%">
      <stop offset="0" stop-color="#FFFFFF" stop-opacity="0.22"/>
      <stop offset="0.55" stop-color="#FFFFFF" stop-opacity="0"/>
    </radialGradient>
    <linearGradient id="cognitive-reframe-thoughts-shade" x1="0" y1="0" x2="0" y2="1">
      <stop offset="0.55" stop-color="#171420" stop-opacity="0"/>
      <stop offset="1" stop-color="#171420" stop-opacity="0.16"/>
    </linearGradient>
  </defs>
  <circle cx="24" cy="24" r="24" fill="currentColor"/>
    <circle cx="24" cy="24" r="24" fill="url(#cognitive-reframe-thoughts-glow)"/>
    <circle cx="24" cy="24" r="24" fill="url(#cognitive-reframe-thoughts-shade)"/>
    <circle cx="24" cy="24" r="22.9" fill="none" stroke="#FFFFFF" stroke-opacity="0.12" stroke-width="1.2"/>
  <circle cx="11.5" cy="34.5" r="3" fill="#A03F52"/>
  <circle cx="16" cy="29.5" r="4.2" fill="#A03F52"/>
  <path d="M8.3 20.2c0-7.1 6.7-12.8 15-12.8h5.4c7.2 0 13 5.1 13 11.4s-5.8 11.4-13 11.4H20c-6.5 0-11.7-4.5-11.7-10Z" fill="#A03F52"/>
  <circle cx="10.5" cy="32.5" r="3" fill="#FFF4D8"/>
  <circle cx="15" cy="27.5" r="4.2" fill="#FFF4D8"/>
  <path d="M7.3 17.2c0-7.1 6.7-12.8 15-12.8h5.4c7.2 0 13 5.1 13 11.4s-5.8 11.4-13 11.4H19c-6.5 0-11.7-4.5-11.7-10Z" fill="#FFF4D8"/>
  <path d="M15.3 15.5c2.9-3.7 8.4-4.7 12.5-2.2l2.2 1.4M30 14.7l-.7-4.5M32.7 20.1c-2.9 3.7-8.4 4.7-12.5 2.2L18 20.9M18 20.9l.7 4.5" fill="none" stroke="#A03F52" stroke-width="2.6" stroke-linecap="round" stroke-linejoin="round"/>
    <path d="M0 -2.9 L0.82 -0.82 L2.9 0 L0.82 0.82 L0 2.9 L-0.82 0.82 L-2.9 0 L-0.82 -0.82 Z" fill="#FFF4D8" opacity="0.95" transform="translate(41.9 37.2) rotate(12)"/>
    <path d="M0 -1.7 L0.5 -0.5 L1.7 0 L0.5 0.5 L0 1.7 L-0.5 0.5 L-1.7 0 L-0.5 -0.5 Z" fill="#FFFFFF" opacity="0.6" transform="translate(24.5 40.9)"/>
</svg>
