<svg xmlns="http://www.w3.org/2000/svg" viewBox="0 0 48 48" role="img" aria-labelledby="title desc">
  <title id="title">Mirror Work</title>
  <desc id="desc">An ornate oval magic mirror with a jeweled crown and handle.</desc>
  <defs>
    <radialGradient id="cognitive-mirror-work-glow" cx="35%" cy="26%" r="75%">
      <stop offset="0" stop-color="#FFFFFF" stop-opacity="0.22"/>
      <stop offset="0.55" stop-color="#FFFFFF" stop-opacity="0"/>
    </radialGradient>
    <linearGradient id="cognitive-mirror-work-shade" x1="0" y1="0" x2="0" y2="1">
      <stop offset="0.55" stop-color="#171420" stop-opacity="0"/>
      <stop offset="1" stop-color="#171420" stop-opacity="0.16"/>
    </linearGradient>
  </defs>
  <circle cx="24" cy="24" r="24" fill="currentColor"/>
    <circle cx="24" cy="24" r="24" fill="url(#cognitive-mirror-work-glow)"/>
    <circle cx="24" cy="24" r="24" fill="url(#cognitive-mirror-work-shade)"/>
    <circle cx="24" cy="24" r="22.9" fill="none" stroke="#FFFFFF" stroke-opacity="0.12" stroke-width="1.2"/>
  <!-- Deep offset keeps the ornament readable when the icon is rotated on-card. -->
  <g transform="translate(1.8 2.4)" fill="#A03F52">
    <path d="M18.2 5.8 24 1.8l5.8 4-2.1 3H20.3l-2.1-3Z"/>
    <ellipse cx="24" cy="20.4" rx="13.8" ry="16.1"/>
    <path d="M20.2 34.7h7.6v9.1c0 2.2-1.7 4-3.8 4s-3.8-1.8-3.8-4v-9.1Z"/>
  </g>
  <!-- Fairy-tale frame: crown, oval rim, and a centered sculpted handle. -->
  <path d="m17.6 6.3 2-4.3L24 5.1 28.4 2l2 4.3-2.4 3.4h-8l-2.4-3.4Z" fill="#FFF4D8"/>
  <circle cx="24" cy="5.2" r="1.7" fill="#A9F0D1"/>
  <ellipse cx="24" cy="20.4" rx="13.8" ry="16.1" fill="#FFF4D8"/>
  <ellipse cx="24" cy="20.4" rx="10.4" ry="12.7" fill="#A03F52"/>
  <ellipse cx="24" cy="19.2" rx="8.5" ry="10.8" fill="#CDEFE4"/>
  <path d="M18.2 15.8c2.2-3.4 6-5.1 9.6-4.1" fill="none" stroke="#FFFFFF" stroke-width="2.2" stroke-linecap="round" opacity="0.92"/>
  <path d="M20.2 34.7h7.6v9.1c0 2.2-1.7 4-3.8 4s-3.8-1.8-3.8-4v-9.1Z" fill="#FFF4D8"/>
  <path d="M21.8 36.7h4.4M21.8 40.1h4.4" stroke="#A03F52" stroke-width="1.5" stroke-linecap="round"/>
  <circle cx="24" cy="44.1" r="1.4" fill="#A9F0D1"/>
    <path d="M0 -2.9 L0.82 -0.82 L2.9 0 L0.82 0.82 L0 2.9 L-0.82 0.82 L-2.9 0 L-0.82 -0.82 Z" fill="#FFF4D8" opacity="0.95" transform="translate(40.1 10.2) rotate(15)"/>
    <path d="M0 -1.7 L0.5 -0.5 L1.7 0 L0.5 0.5 L0 1.7 L-0.5 0.5 L-1.7 0 L-0.5 -0.5 Z" fill="#FFFFFF" opacity="0.6" transform="translate(7.8 34.7)"/>
</svg>
