<svg xmlns="http://www.w3.org/2000/svg" viewBox="0 0 48 48" role="img" aria-labelledby="title desc">
  <title id="title">AI Phone Calls</title>
  <desc id="desc">A bold telephone handset representing call practice.</desc>
  <defs>
    <radialGradient id="exposure-ai-phone-calls-glow" cx="35%" cy="26%" r="75%">
      <stop offset="0" stop-color="#FFFFFF" stop-opacity="0.22"/>
      <stop offset="0.55" stop-color="#FFFFFF" stop-opacity="0"/>
    </radialGradient>
    <linearGradient id="exposure-ai-phone-calls-shade" x1="0" y1="0" x2="0" y2="1">
      <stop offset="0.55" stop-color="#171420" stop-opacity="0"/>
      <stop offset="1" stop-color="#171420" stop-opacity="0.16"/>
    </linearGradient>
  </defs>
  <circle cx="24" cy="24" r="24" fill="currentColor"/>
    <circle cx="24" cy="24" r="24" fill="url(#exposure-ai-phone-calls-glow)"/>
    <circle cx="24" cy="24" r="24" fill="url(#exposure-ai-phone-calls-shade)"/>
    <circle cx="24" cy="24" r="22.9" fill="none" stroke="#FFFFFF" stroke-opacity="0.12" stroke-width="1.2"/>
  <path d="M10.5 7.7c1.6-1.6 4.1-1.9 6-.6l6 4.1c1.9 1.3 2.6 3.8 1.6 5.9l-2.4 5.1c1.4 2.8 3.4 4.8 6.2 6.2L33 26c2.1-1 4.6-.3 5.9 1.6l4.1 6c1.3 1.9 1 4.4-.6 6l-3.3 3.3c-2.6 2.6-6.6 3.4-10 1.9C17.5 39.7 8.3 30.5 3.2 18.9c-1.5-3.4-.7-7.4 1.9-10l3.3-3.3 2.1 2.1Z" fill="#5D45B8"/>
  <path d="M10.5 4.7c1.6-1.6 4.1-1.9 6-.6l6 4.1c1.9 1.3 2.6 3.8 1.6 5.9l-2.4 5.1c1.4 2.8 3.4 4.8 6.2 6.2L33 23c2.1-1 4.6-.3 5.9 1.6l4.1 6c1.3 1.9 1 4.4-.6 6l-3.3 3.3c-2.6 2.6-6.6 3.4-10 1.9C17.5 36.7 8.3 27.5 3.2 15.9c-1.5-3.4-.7-7.4 1.9-10l3.3-3.3 2.1 2.1Z" fill="#FFF4D8"/>
  <path d="M9.1 7.6c1.3-1.3 3.2-1.5 4.7-.5l5.4 3.7c1.5 1 2 2.9 1.2 4.5l-2.3 4.9c2 4.3 5.4 7.7 9.7 9.7l4.9-2.3c1.6-.8 3.5-.3 4.5 1.2l3.7 5.4c1 1.5.8 3.4-.5 4.7" fill="none" stroke="#FF8D72" stroke-width="2.8" stroke-linecap="round"/>
    <path d="M0 -2.9 L0.82 -0.82 L2.9 0 L0.82 0.82 L0 2.9 L-0.82 0.82 L-2.9 0 L-0.82 -0.82 Z" fill="#FFF4D8" opacity="0.95" transform="translate(39.8 9.1) rotate(12)"/>
    <path d="M0 -1.7 L0.5 -0.5 L1.7 0 L0.5 0.5 L0 1.7 L-0.5 0.5 L-1.7 0 L-0.5 -0.5 Z" fill="#FFFFFF" opacity="0.6" transform="translate(44.2 17.4)"/>
</svg>
