<svg xmlns="http://www.w3.org/2000/svg" viewBox="0 0 48 48" role="img" aria-labelledby="title desc">
  <title id="title">Character Voice</title>
  <desc id="desc">A stage microphone with playful voice waves.</desc>
  <defs>
    <radialGradient id="fun-character-voice-glow" cx="35%" cy="26%" r="75%">
      <stop offset="0" stop-color="#FFFFFF" stop-opacity="0.22"/>
      <stop offset="0.55" stop-color="#FFFFFF" stop-opacity="0"/>
    </radialGradient>
    <linearGradient id="fun-character-voice-shade" x1="0" y1="0" x2="0" y2="1">
      <stop offset="0.55" stop-color="#171420" stop-opacity="0"/>
      <stop offset="1" stop-color="#171420" stop-opacity="0.16"/>
    </linearGradient>
  </defs>
  <circle cx="24" cy="24" r="24" fill="currentColor"/>
    <circle cx="24" cy="24" r="24" fill="url(#fun-character-voice-glow)"/>
    <circle cx="24" cy="24" r="24" fill="url(#fun-character-voice-shade)"/>
    <circle cx="24" cy="24" r="22.9" fill="none" stroke="#FFFFFF" stroke-opacity="0.12" stroke-width="1.2"/>
  <g transform="translate(0 2.5)">
    <path d="M26.3 24.6 L33 37.5" stroke="#B53B51" stroke-width="7.4" stroke-linecap="round"/>
    <circle cx="21.5" cy="17" r="9.5" fill="#B53B51"/>
  </g>
  <path d="M26.3 24.6 L33 37.5" stroke="#FF6B6B" stroke-width="7.4" stroke-linecap="round"/>
  <circle cx="21.5" cy="17" r="9.5" fill="#FF6B6B"/>
  <circle cx="21.5" cy="17" r="9.5" fill="none" stroke="#B53B51" stroke-width="1.6"/>
  <g stroke="#FFF4D8" stroke-width="1.8" stroke-linecap="round">
    <path d="M14.9 13.4 h13.2"/>
    <path d="M13.2 17 h16.6"/>
    <path d="M14.9 20.6 h13.2"/>
  </g>
  <path d="M15.4 10.9 c1.8-1.9 4.4-2.7 6.8-2.2" fill="none" stroke="#FFF4D8" stroke-width="1.7" stroke-linecap="round" opacity="0.7"/>
  <g fill="none" stroke="#FFF4D8" stroke-linecap="round">
    <path d="M34.4 11.2 c2.6 2 2.6 5.6 0 7.6" stroke-width="2"/>
    <path d="M37.8 8.6 c4 3.1 4 8.7 0 11.8" stroke-width="2" opacity="0.8"/>
  </g>
    <path d="M0 -2.9 L0.82 -0.82 L2.9 0 L0.82 0.82 L0 2.9 L-0.82 0.82 L-2.9 0 L-0.82 -0.82 Z" fill="#FFF4D8" opacity="0.95" transform="translate(43.4 30) rotate(12)"/>
    <path d="M0 -1.7 L0.5 -0.5 L1.7 0 L0.5 0.5 L0 1.7 L-0.5 0.5 L-1.7 0 L-0.5 -0.5 Z" fill="#FFFFFF" opacity="0.6" transform="translate(9.3 38.2)"/>
</svg>
