<svg xmlns="http://www.w3.org/2000/svg" viewBox="0 0 48 48" role="img" aria-labelledby="title desc">
  <title id="title">Roleplay</title>
  <desc id="desc">A clapperboard — acting out real-life scenes.</desc>
  <defs>
    <radialGradient id="fun-roleplay-glow" cx="35%" cy="26%" r="75%">
      <stop offset="0" stop-color="#FFFFFF" stop-opacity="0.22"/>
      <stop offset="0.55" stop-color="#FFFFFF" stop-opacity="0"/>
    </radialGradient>
    <linearGradient id="fun-roleplay-shade" x1="0" y1="0" x2="0" y2="1">
      <stop offset="0.55" stop-color="#171420" stop-opacity="0"/>
      <stop offset="1" stop-color="#171420" stop-opacity="0.16"/>
    </linearGradient>
  </defs>
  <circle cx="24" cy="24" r="24" fill="currentColor"/>
    <circle cx="24" cy="24" r="24" fill="url(#fun-roleplay-glow)"/>
    <circle cx="24" cy="24" r="24" fill="url(#fun-roleplay-shade)"/>
    <circle cx="24" cy="24" r="22.9" fill="none" stroke="#FFFFFF" stroke-opacity="0.12" stroke-width="1.2"/>
  <g fill="#B53B51" transform="translate(0 2.5)">
    <path d="M9 13.8 L38.2 7.4 L39.7 13.1 L10.5 19.5 Z"/>
    <rect x="8.7" y="19.2" width="31" height="17.6" rx="3"/>
  </g>
  <rect x="8.7" y="19.2" width="31" height="17.6" rx="3" fill="#FF6B6B"/>
  <path d="M9 13.8 L38.2 7.4 L39.7 13.1 L10.5 19.5 Z" fill="#B53B51"/>
  <g fill="#FFF4D8">
    <path d="M14.6 12.5 L18.9 11.55 L20.1 16.75 L15.8 17.7 Z"/>
    <path d="M22.9 10.7 L27.2 9.75 L28.4 14.95 L24.1 15.9 Z"/>
    <path d="M31.2 8.85 L35.5 7.9 L36.7 13.1 L32.4 14.05 Z"/>
  </g>
  <circle cx="10.7" cy="16.6" r="1.5" fill="#FFF4D8"/>
  <path d="M13 24.5 h21.5" stroke="#FFF4D8" stroke-width="1.8" stroke-linecap="round"/>
  <path d="M13 29.5 h9 M25.5 29.5 h6" stroke="#FFAF98" stroke-width="1.8" stroke-linecap="round"/>
    <path d="M0 -2.9 L0.82 -0.82 L2.9 0 L0.82 0.82 L0 2.9 L-0.82 0.82 L-2.9 0 L-0.82 -0.82 Z" fill="#FFF4D8" opacity="0.95" transform="translate(10.4 41.9) rotate(-12)"/>
    <path d="M0 -1.7 L0.5 -0.5 L1.7 0 L0.5 0.5 L0 1.7 L-0.5 0.5 L-1.7 0 L-0.5 -0.5 Z" fill="#FFFFFF" opacity="0.6" transform="translate(42.6 18.6)"/>
</svg>
