<svg xmlns="http://www.w3.org/2000/svg" viewBox="0 0 48 48" role="img" aria-labelledby="title desc">
  <title id="title">Phrases</title>
  <desc id="desc">A balanced open book with grouped lines for phrase practice.</desc>
  <defs>
    <radialGradient id="reading-phrases-glow" cx="35%" cy="26%" r="75%">
      <stop offset="0" stop-color="#FFFFFF" stop-opacity="0.22"/>
      <stop offset="0.55" stop-color="#FFFFFF" stop-opacity="0"/>
    </radialGradient>
    <linearGradient id="reading-phrases-shade" x1="0" y1="0" x2="0" y2="1">
      <stop offset="0.55" stop-color="#171420" stop-opacity="0"/>
      <stop offset="1" stop-color="#171420" stop-opacity="0.16"/>
    </linearGradient>
  </defs>
  <circle cx="24" cy="24" r="24" fill="currentColor"/>
    <circle cx="24" cy="24" r="24" fill="url(#reading-phrases-glow)"/>
    <circle cx="24" cy="24" r="24" fill="url(#reading-phrases-shade)"/>
    <circle cx="24" cy="24" r="22.9" fill="none" stroke="#FFFFFF" stroke-opacity="0.12" stroke-width="1.2"/>
  <!-- A straight lower edge and centered spine stop the book reading as warped. -->
  <path d="M5.8 13.7c7.1-2.7 13.1-1.2 18.2 3.5 5.1-4.7 11.1-6.2 18.2-3.5v23.6c-6.7-2.5-12.6-1.2-18.2 3.6-5.6-4.8-11.5-6.1-18.2-3.6V13.7Z" fill="#306FC8"/>
  <path d="M6.8 10.1c6.9-2.1 12.5-.3 17.2 4.6 4.7-4.9 10.3-6.7 17.2-4.6v23.3c-6.5-1.9-12.2-.2-17.2 4.8-5-5-10.7-6.7-17.2-4.8V10.1Z" fill="#FFF4D8"/>
  <path d="M24 14.7v23.5" fill="none" stroke="#306FC8" stroke-width="1.8" stroke-linecap="round"/>
  <path d="M11.3 16.2h7.8M11.3 21.5h9M11.3 26.8h6.6M28.9 16.2h7.8M27.7 21.5h9M30.1 26.8h6.6" fill="none" stroke="#306FC8" stroke-width="2.3" stroke-linecap="round"/>
  <path d="M9 31.3c5.9-1.1 10.9.6 15 4.6 4.1-4 9.1-5.7 15-4.6" fill="none" stroke="#A9F0D1" stroke-width="1.4" stroke-linecap="round" opacity="0.9"/>
    <path d="M0 -2.9 L0.82 -0.82 L2.9 0 L0.82 0.82 L0 2.9 L-0.82 0.82 L-2.9 0 L-0.82 -0.82 Z" fill="#FFF4D8" opacity="0.95" transform="translate(40.3 8.1) rotate(12)"/>
    <path d="M0 -1.7 L0.5 -0.5 L1.7 0 L0.5 0.5 L0 1.7 L-0.5 0.5 L-1.7 0 L-0.5 -0.5 Z" fill="#FFFFFF" opacity="0.6" transform="translate(7.2 39.2)"/>
</svg>
