<svg xmlns="http://www.w3.org/2000/svg" viewBox="0 0 48 48" role="img" aria-labelledby="title desc">
  <title id="title">Words</title>
  <desc id="desc">A letter tile representing word practice.</desc>
  <defs>
    <radialGradient id="reading-words-glow" cx="35%" cy="26%" r="75%">
      <stop offset="0" stop-color="#FFFFFF" stop-opacity="0.22"/>
      <stop offset="0.55" stop-color="#FFFFFF" stop-opacity="0"/>
    </radialGradient>
    <linearGradient id="reading-words-shade" x1="0" y1="0" x2="0" y2="1">
      <stop offset="0.55" stop-color="#171420" stop-opacity="0"/>
      <stop offset="1" stop-color="#171420" stop-opacity="0.16"/>
    </linearGradient>
  </defs>
  <circle cx="24" cy="24" r="24" fill="currentColor"/>
    <circle cx="24" cy="24" r="24" fill="url(#reading-words-glow)"/>
    <circle cx="24" cy="24" r="24" fill="url(#reading-words-shade)"/>
    <circle cx="24" cy="24" r="22.9" fill="none" stroke="#FFFFFF" stroke-opacity="0.12" stroke-width="1.2"/>
  <rect x="10" y="9" width="28" height="30" rx="7" fill="#306FC8"/>
  <rect x="10" y="7" width="28" height="28" rx="7" fill="#FFF4D8"/>
  <path d="M15.2 15.2 19 28.3l5-9.5 5 9.5 3.8-13.1" fill="none" stroke="#171420" stroke-width="3.2" stroke-linecap="round" stroke-linejoin="round"/>
    <path d="M0 -2.9 L0.82 -0.82 L2.9 0 L0.82 0.82 L0 2.9 L-0.82 0.82 L-2.9 0 L-0.82 -0.82 Z" fill="#FFF4D8" opacity="0.95" transform="translate(7.2 36.5) rotate(-15)"/>
    <path d="M0 -1.7 L0.5 -0.5 L1.7 0 L0.5 0.5 L0 1.7 L-0.5 0.5 L-1.7 0 L-0.5 -0.5 Z" fill="#FFFFFF" opacity="0.6" transform="translate(41.3 12.5)"/>
</svg>
