<svg width="48" height="48" viewBox="0 0 48 48" fill="none" xmlns="http://www.w3.org/2000/svg">
<path d="M48 24C48 10.7452 37.2548 0 24 0C10.7452 0 0 10.7452 0 24C0 37.2548 10.7452 48 24 48C37.2548 48 48 37.2548 48 24Z" fill="#B8DCC2"/>
<g filter="url(#filter0_d_2132_4805)">
<path d="M8.07494 10.0751C8.07494 7.3083 41.2739 7.3083 41.2739 10.0751C44.0405 10.0751 44.0405 48.8105 41.2739 48.8105C41.2739 51.5773 8.07494 51.5773 8.07494 48.8105C5.30835 48.8105 5.30835 10.0751 8.07494 10.0751Z" fill="#E7E2CB"/>
</g>
<path d="M16.7996 31.1998C20.7761 31.1998 23.9996 27.9762 23.9996 23.9998C23.9996 20.0233 20.7761 16.7998 16.7996 16.7998C12.8232 16.7998 9.59961 20.0233 9.59961 23.9998C9.59961 27.9762 12.8232 31.1998 16.7996 31.1998Z" fill="white"/>
<path d="M31.2 31.1998C35.1764 31.1998 38.4 27.9762 38.4 23.9998C38.4 20.0233 35.1764 16.7998 31.2 16.7998C27.2236 16.7998 24 20.0233 24 23.9998C24 27.9762 27.2236 31.1998 31.2 31.1998Z" fill="white"/>
<path d="M16.8005 28.3197C19.1863 28.3197 21.1205 26.3855 21.1205 23.9997C21.1205 21.6138 19.1863 19.6797 16.8005 19.6797C14.4146 19.6797 12.4805 21.6138 12.4805 23.9997C12.4805 26.3855 14.4146 28.3197 16.8005 28.3197Z" fill="#4A4A4A"/>
<path d="M31.2009 28.3197C33.5868 28.3197 35.5209 26.3855 35.5209 23.9997C35.5209 21.6138 33.5868 19.6797 31.2009 19.6797C28.815 19.6797 26.8809 21.6138 26.8809 23.9997C26.8809 26.3855 28.815 28.3197 31.2009 28.3197Z" fill="#4A4A4A"/>
<defs>
<filter id="filter0_d_2132_4805" x="6" y="8" width="43.3496" height="48.8857" filterUnits="userSpaceOnUse" color-interpolation-filters="sRGB">
<feFlood flood-opacity="0" result="BackgroundImageFix"/>
<feColorMatrix in="SourceAlpha" type="matrix" values="0 0 0 0 0 0 0 0 0 0 0 0 0 0 0 0 0 0 127 0" result="hardAlpha"/>
<feOffset dx="4" dy="4"/>
<feGaussianBlur stdDeviation="1"/>
<feComposite in2="hardAlpha" operator="out"/>
<feColorMatrix type="matrix" values="0 0 0 0 0 0 0 0 0 0 0 0 0 0 0 0 0 0 0.25 0"/>
<feBlend mode="normal" in2="BackgroundImageFix" result="effect1_dropShadow_2132_4805"/>
<feBlend mode="normal" in="SourceGraphic" in2="effect1_dropShadow_2132_4805" result="shape"/>
</filter>
</defs>
</svg>
