<svg width="48" height="48" viewBox="0 0 48 48" fill="none" xmlns="http://www.w3.org/2000/svg">
<mask id="mask0_2132_4899" style="mask-type:luminance" maskUnits="userSpaceOnUse" x="0" y="0" width="48" height="48">
<path d="M48 24C48 10.7452 37.2548 0 24 0C10.7452 0 0 10.7452 0 24C0 37.2548 10.7452 48 24 48C37.2548 48 48 37.2548 48 24Z" fill="white"/>
</mask>
<g mask="url(#mask0_2132_4899)">
<path d="M48 24C48 10.7452 37.2548 0 24 0C10.7452 0 0 10.7452 0 24C0 37.2548 10.7452 48 24 48C37.2548 48 48 37.2548 48 24Z" fill="#F9E7D9"/>
<g filter="url(#filter0_d_2132_4899)">
<path d="M7.53781 10.3134C7.53781 7.54657 40.7368 7.54657 40.7368 10.3134C43.5033 10.3134 43.5033 49.0487 40.7368 49.0487C40.7368 51.8156 7.53781 51.8156 7.53781 49.0487C4.77125 49.0487 4.77125 10.3134 7.53781 10.3134Z" fill="#F7DFA9"/>
</g>
<path d="M16.7996 31.1998C20.776 31.1998 23.9996 27.9762 23.9996 23.9998C23.9996 20.0233 20.776 16.7998 16.7996 16.7998C12.8231 16.7998 9.59961 20.0233 9.59961 23.9998C9.59961 27.9762 12.8231 31.1998 16.7996 31.1998Z" fill="white"/>
<path d="M31.2 31.1998C35.1765 31.1998 38.4 27.9762 38.4 23.9998C38.4 20.0233 35.1765 16.7998 31.2 16.7998C27.2236 16.7998 24 20.0233 24 23.9998C24 27.9762 27.2236 31.1998 31.2 31.1998Z" fill="white"/>
<path d="M16.8005 28.3197C19.1864 28.3197 21.1205 26.3855 21.1205 23.9997C21.1205 21.6138 19.1864 19.6797 16.8005 19.6797C14.4146 19.6797 12.4805 21.6138 12.4805 23.9997C12.4805 26.3855 14.4146 28.3197 16.8005 28.3197Z" fill="#2E2E2E"/>
<path d="M31.2009 28.3197C33.5868 28.3197 35.5209 26.3855 35.5209 23.9997C35.5209 21.6138 33.5868 19.6797 31.2009 19.6797C28.815 19.6797 26.8809 21.6138 26.8809 23.9997C26.8809 26.3855 28.815 28.3197 31.2009 28.3197Z" fill="#2E2E2E"/>
<path d="M16.8008 36C21.6008 39.2 26.4008 39.2 31.2008 36" stroke="#4A4A4A" stroke-width="3.55789" stroke-linecap="round"/>
</g>
<defs>
<filter id="filter0_d_2132_4899" x="5.46289" y="8.23828" width="43.3496" height="48.8857" filterUnits="userSpaceOnUse" color-interpolation-filters="sRGB">
<feFlood flood-opacity="0" result="BackgroundImageFix"/>
<feColorMatrix in="SourceAlpha" type="matrix" values="0 0 0 0 0 0 0 0 0 0 0 0 0 0 0 0 0 0 127 0" result="hardAlpha"/>
<feOffset dx="4" dy="4"/>
<feGaussianBlur stdDeviation="1"/>
<feComposite in2="hardAlpha" operator="out"/>
<feColorMatrix type="matrix" values="0 0 0 0 0 0 0 0 0 0 0 0 0 0 0 0 0 0 0.25 0"/>
<feBlend mode="normal" in2="BackgroundImageFix" result="effect1_dropShadow_2132_4899"/>
<feBlend mode="normal" in="SourceGraphic" in2="effect1_dropShadow_2132_4899" result="shape"/>
</filter>
</defs>
</svg>
