<svg xmlns="http://www.w3.org/2000/svg" viewBox="0 0 48 48" role="img" aria-labelledby="title desc">
  <title id="title">Fun</title>
  <desc id="desc">A dark squircle wearer with playful three-dimensional movie glasses.</desc>
  <defs>
    <clipPath id="fun-clip"><circle cx="24" cy="24" r="24"/></clipPath>
      <radialGradient id="fun-glow" cx="35%" cy="26%" r="75%">
      <stop offset="0" stop-color="#FFFFFF" stop-opacity="0.22"/>
      <stop offset="0.55" stop-color="#FFFFFF" stop-opacity="0"/>
    </radialGradient>
    <linearGradient id="fun-shade" x1="0" y1="0" x2="0" y2="1">
      <stop offset="0.55" stop-color="#171420" stop-opacity="0"/>
      <stop offset="1" stop-color="#171420" stop-opacity="0.16"/>
    </linearGradient>
  </defs>
  <g clip-path="url(#fun-clip)">
    <circle cx="24" cy="24" r="24" fill="currentColor"/>
    <circle cx="24" cy="24" r="24" fill="url(#fun-glow)"/>
    <circle cx="24" cy="24" r="24" fill="url(#fun-shade)"/>
    <circle cx="24" cy="24" r="22.9" fill="none" stroke="#FFFFFF" stroke-opacity="0.12" stroke-width="1.2"/>
    <path fill="#171420" d="M8.075 10.075c0-2.767 33.199-2.767 33.199 0 2.767 0 2.767 38.736 0 38.736 0 2.766-33.2 2.766-33.2 0-2.766 0-2.766-38.736 0-38.736"/>
    <path d="M8.075 10.075c0-2.767 33.199-2.767 33.199 0" fill="none" stroke="#FFFFFF" stroke-opacity="0.16" stroke-width="1.3" stroke-linecap="round"/>
    <path fill="#FFF4D8" d="M7.5 16.5h33v11.4c0 1.3-1 2.3-2.3 2.3h-10c-1.2 0-2.2-.9-2.3-2.1l-.3-3.5h-3.2l-.3 3.5a2.3 2.3 0 0 1-2.3 2.1h-10a2.3 2.3 0 0 1-2.3-2.3V16.5Z"/>
    <path fill="#E74D60" d="M10.7 19.3h10.1l-.6 7.7h-8.9l-.6-7.7Z"/>
    <path fill="#4677E8" d="M27.2 19.3h10.1l-.6 7.7h-8.9l-.6-7.7Z"/>
    <path d="M12.2 20.4h5.6" stroke="#FF9EA8" stroke-width="1.4" stroke-linecap="round"/>
    <path d="M29 20.4h5.6" stroke="#84A7FF" stroke-width="1.4" stroke-linecap="round"/>
      <path d="M0 -2.9 L0.82 -0.82 L2.9 0 L0.82 0.82 L0 2.9 L-0.82 0.82 L-2.9 0 L-0.82 -0.82 Z" fill="#FFF4D8" opacity="0.95" transform="translate(36.8 7) rotate(12)"/>
    <path d="M0 -1.7 L0.5 -0.5 L1.7 0 L0.5 0.5 L0 1.7 L-0.5 0.5 L-1.7 0 L-0.5 -0.5 Z" fill="#FFFFFF" opacity="0.6" transform="translate(11 7.6)"/>
  </g>
</svg>
