<svg xmlns="http://www.w3.org/2000/svg" viewBox="0 0 48 48" role="img" aria-labelledby="title desc">
  <title id="title">Reading</title>
  <desc id="desc">A dark squircle wearer with round reading glasses.</desc>
  <defs>
    <clipPath id="reading-clip"><circle cx="24" cy="24" r="24"/></clipPath>
      <radialGradient id="reading-glow" cx="35%" cy="26%" r="75%">
      <stop offset="0" stop-color="#FFFFFF" stop-opacity="0.22"/>
      <stop offset="0.55" stop-color="#FFFFFF" stop-opacity="0"/>
    </radialGradient>
    <linearGradient id="reading-shade" x1="0" y1="0" x2="0" y2="1">
      <stop offset="0.55" stop-color="#171420" stop-opacity="0"/>
      <stop offset="1" stop-color="#171420" stop-opacity="0.16"/>
    </linearGradient>
  </defs>
  <g clip-path="url(#reading-clip)">
    <circle cx="24" cy="24" r="24" fill="currentColor"/>
    <circle cx="24" cy="24" r="24" fill="url(#reading-glow)"/>
    <circle cx="24" cy="24" r="24" fill="url(#reading-shade)"/>
    <circle cx="24" cy="24" r="22.9" fill="none" stroke="#FFFFFF" stroke-opacity="0.12" stroke-width="1.2"/>
    <path fill="#171420" d="M8.075 10.075c0-2.767 33.199-2.767 33.199 0 2.767 0 2.767 38.736 0 38.736 0 2.766-33.2 2.766-33.2 0-2.766 0-2.766-38.736 0-38.736"/>
    <path d="M8.075 10.075c0-2.767 33.199-2.767 33.199 0" fill="none" stroke="#FFFFFF" stroke-opacity="0.16" stroke-width="1.3" stroke-linecap="round"/>
    <g fill="none" stroke="#FFF4D8" stroke-width="3.2" stroke-linecap="round" stroke-linejoin="round">
      <circle cx="16" cy="22" r="6.1"/>
      <circle cx="32" cy="22" r="6.1"/>
      <path d="M22.1 21.7c1.3-1 2.5-1 3.8 0M9.9 21.5H7M38.1 21.5H41"/>
    </g>
    <path d="M12.2 18.7c1.9-2.2 5.7-2.8 8.1-.8" fill="none" stroke="#D89B2B" stroke-width="1.5" stroke-linecap="round"/>
      <path d="M0 -2.9 L0.82 -0.82 L2.9 0 L0.82 0.82 L0 2.9 L-0.82 0.82 L-2.9 0 L-0.82 -0.82 Z" fill="#FFF4D8" opacity="0.95" transform="translate(13 5.6) rotate(-14)"/>
    <path d="M0 -1.7 L0.5 -0.5 L1.7 0 L0.5 0.5 L0 1.7 L-0.5 0.5 L-1.7 0 L-0.5 -0.5 Z" fill="#FFFFFF" opacity="0.6" transform="translate(36.5 7.2)"/>
  </g>
</svg>
