<svg xmlns="http://www.w3.org/2000/svg" width="300" height="300" viewBox="0 0 300 300">
  <defs>
    <pattern id="speechPattern" width="300" height="300" patternUnits="userSpaceOnUse">
      <g stroke="#FEF8F2" stroke-width="4" fill="none" stroke-linecap="round" stroke-linejoin="round">

        <path d="M10,150 Q 75,100 150,150 T 290,150" />
        <path d="M10,160 Q 75,210 150,160 T 290,160" />

        <g transform="translate(150, 70)">
          <path d="M-30,0 Q 0,20 30,0 Q 0,-20 -30,0 Z"/> <path d="M-15,5 Q 0,15 15,5"/> </g>

        <g transform="translate(220, 220)">
            <path d="M10,-30 Q30,-40 50,-30 Q50,-10 30,-10 Q10,-10 10,-30 Z"/> <path d="M25,-25 L40,-25"/> <path d="M25,-18 L35,-18"/> </g>

        <g transform="translate(70, 230)">
            <circle cx="0" cy="-25" r="15"/> <path d="M0,-10 V 20 M -15,20 H 15"/> <path d="M20,-30 Q40,-45 60,-30 Q60,-15 40,-15 Q20,-15 20,-30 Z"/> </g>

         <g transform="translate(250, 50)">
            <path d="M0,0 C10,-10 10,10 0,0 Z"/>
            <path d="M5,-5 Q10,0 5,5"/>
         </g>

         <g transform="translate(30, 30)">
             <path d="M15,0 L18.5,11.5 L30,11.5 L20,18.5 L23.5,30 L15,23.5 L6.5,30 L10,18.5 L0,11.5 L11.5,11.5 Z"/>
         </g>

         <g transform="translate(200, 10)">
             <path d="M15,0 L18.5,11.5 L30,11.5 L20,18.5 L23.5,30 L15,23.5 L6.5,30 L10,18.5 L0,11.5 L11.5,11.5 Z"/>
         </g>

         <g transform="translate(280, 280)">
             <path d="M15,0 L18.5,11.5 L30,11.5 L20,18.5 L23.5,30 L15,23.5 L6.5,30 L10,18.5 L0,11.5 L11.5,11.5 Z"/>
         </g>
         <g transform="translate(-20, 280)">
             <path d="M15,0 L18.5,11.5 L30,11.5 L20,18.5 L23.5,30 L15,23.5 L6.5,30 L10,18.5 L0,11.5 L11.5,11.5 Z"/>
         </g>
          <g transform="translate(280, -20)">
             <path d="M15,0 L18.5,11.5 L30,11.5 L20,18.5 L23.5,30 L15,23.5 L6.5,30 L10,18.5 L0,11.5 L11.5,11.5 Z"/>
         </g>


      </g>
    </pattern>
  </defs>

  <rect width="100%" height="100%" fill="url(#speechPattern)"/>
</svg>
