<svg width="12" height="30" viewBox="0 0 12 30" fill="none" xmlns="http://www.w3.org/2000/svg">
<path fill-rule="evenodd" clip-rule="evenodd" d="M1.74264 0.0221476C2.68232 2.25502 4.27969 3.80644 5.12572 6.12818C5.62741 7.50504 5.83654 9.00208 5.84922 10.5353C5.85611 11.3681 5.84162 12.2014 5.83772 13.0342C5.83393 13.8464 5.81186 14.6533 5.74292 15.4603C5.67365 16.2715 5.59609 17.0731 5.56188 17.8893C5.53525 18.5253 5.52308 19.265 5.3075 19.8451C5.13607 20.3065 4.70036 20.374 4.58475 19.8145C4.5205 19.5035 4.5286 19.1562 4.53568 18.8365C4.54477 18.4264 4.56863 18.0169 4.58079 17.6068C4.62969 15.9613 4.5663 14.3155 4.59944 12.6693C4.63181 11.061 4.83854 9.45437 4.60979 7.85675C4.42089 6.53744 3.94101 5.40452 3.38951 4.31842C2.85891 3.27349 2.28142 2.25395 1.92286 1.06536C1.8199 0.724 1.74031 0.370267 1.70212 0.00320643C1.71881 -0.00454569 1.73232 0.00175529 1.74264 0.0221476Z" fill="#C1DEE2"/>
<path fill-rule="evenodd" clip-rule="evenodd" d="M1.48654 4.42733C1.67261 4.56169 1.77658 4.75824 1.90235 4.95218C2.05875 5.19329 2.24262 5.41096 2.39898 5.65224C2.72502 6.15527 3.01146 6.6892 3.30867 7.21261C3.87292 8.2061 4.30133 9.26497 4.51352 10.4143C4.73346 11.6055 4.79276 12.8349 4.88502 14.0438C4.98287 15.3251 5.08141 16.6158 5.09437 17.902C5.10016 18.4782 5.13132 19.09 5.06213 19.6622C5.01907 20.0184 4.85831 20.322 4.49588 20.3191C3.72604 20.313 3.36461 19.4603 3.21361 18.761C2.99135 17.7313 2.947 16.6375 2.98219 15.5845C3.0247 14.3147 3.24508 13.064 3.34046 11.7991C3.44147 10.4601 3.38441 9.1447 2.92405 7.88391C2.69147 7.24678 2.42154 6.62492 2.17916 5.99202C2.07595 5.72254 1.99141 5.44574 1.852 5.19481C1.69692 4.9157 1.50441 4.66233 1.38297 4.36169C1.41748 4.3836 1.45203 4.40546 1.48654 4.42733Z" fill="#89C5CC"/>
<path fill-rule="evenodd" clip-rule="evenodd" d="M10.3547 1.75722C10.3783 1.73888 10.4019 1.72054 10.4255 1.70215C10.3575 1.9886 10.2347 2.22129 10.1408 2.48314C10.0565 2.71854 10.0137 2.98494 9.95686 3.24225C9.8234 3.84659 9.66918 4.43731 9.54312 5.0468C9.29359 6.25287 9.34078 7.55217 9.50444 8.89025C9.659 10.1542 9.90344 11.4163 10.0199 12.68C10.1165 13.728 10.158 14.8087 10.0659 15.8086C10.0033 16.4877 9.79813 17.2985 9.23915 17.23C8.97599 17.1977 8.83871 16.881 8.78341 16.5234C8.69457 15.9491 8.67597 15.3453 8.64134 14.7742C8.56406 13.4996 8.54867 12.2288 8.53341 10.9673C8.51896 9.77704 8.47919 8.5632 8.55872 7.40292C8.63543 6.28332 8.87535 5.27446 9.21839 4.34361C9.39907 3.85319 9.57123 3.3513 9.77423 2.8839C9.87158 2.6597 9.99052 2.46159 10.0879 2.23757C10.1662 2.05738 10.2285 1.87248 10.3547 1.75722Z" fill="#C1DEE2"/>
<path fill-rule="evenodd" clip-rule="evenodd" d="M1.72433 8.11719C1.82613 7.94629 2.05021 8.50991 2.08431 8.5808C2.06989 8.54554 2.05541 8.51033 2.0408 8.47515C2.24286 8.81114 2.42772 9.16091 2.54265 9.54616C2.65638 9.92754 2.75406 10.3166 2.86078 10.7007C3.06101 11.4214 3.31932 12.1215 3.50073 12.8487C3.6775 13.5572 3.72207 14.2538 3.67928 14.9867C3.6348 15.7484 3.60759 16.5219 3.65948 17.2832C3.68426 17.6468 3.80241 17.9855 3.88339 18.3355C3.96446 18.6859 4.02832 19.041 4.12417 19.3871C4.14617 19.342 4.14897 19.4927 4.14893 19.5042C4.14832 19.5906 4.13625 19.6631 4.10844 19.7451C4.03696 19.9559 3.90325 20.135 3.69977 20.1931C3.33207 20.2982 2.99065 19.9637 2.87208 19.6105C2.70197 19.1037 2.60823 18.5437 2.52716 18.011C2.45284 17.5226 2.43525 17.0313 2.45733 16.5361C2.50083 15.5596 2.67754 14.5959 2.72534 13.6197C2.77737 12.557 2.5668 11.5584 2.3905 10.5239C2.30558 10.0254 2.22443 9.53165 2.05917 9.05675C1.99226 8.86444 1.90503 8.69473 1.81356 8.51715C1.76152 8.41612 1.65627 8.23589 1.72433 8.11719Z" fill="#C1DEE2"/>
<path fill-rule="evenodd" clip-rule="evenodd" d="M4.70765 6.4571C4.66548 7.67463 4.59275 8.88293 4.43043 10.0876C4.26476 11.317 4.07449 12.5422 3.91508 13.7727C3.75992 14.9704 3.59728 16.1881 3.61896 17.4026C3.63493 18.2971 3.48659 19.8105 4.48013 20.252C5.48638 20.6991 5.70222 18.7897 5.76829 18.1594C5.89491 16.9503 5.85392 15.7284 5.79247 14.5126C5.72938 13.2648 5.62407 12.0234 5.49355 10.7801C5.34858 9.39921 5.23484 8.01205 5.14354 6.62719C5.09838 5.9422 5.08725 5.25834 5.09971 4.57318C5.11149 3.92664 5.08693 3.27341 4.85706 2.65955C4.84501 2.66828 4.83305 2.67701 4.821 2.68571" fill="#69A1AC"/>
<path fill-rule="evenodd" clip-rule="evenodd" d="M9.9024 10.3144C9.72144 10.5781 9.53902 10.8391 9.36812 11.1184C9.06234 11.618 8.78583 12.1736 8.70264 12.888C8.52856 14.3831 8.66822 15.9978 8.70193 17.5386C8.70882 17.8535 8.669 18.1589 8.7931 18.4585C8.90562 18.7303 9.116 18.9373 9.31653 18.9362C9.74581 18.9338 9.68032 17.8825 9.68102 17.4198C9.68232 16.6088 9.59138 15.7896 9.59921 14.9794C9.60702 14.1767 9.65584 13.3718 9.77222 12.6094C9.89004 11.8378 10.0626 11.0968 10.2903 10.4053C10.3219 10.3094 10.5487 9.56788 10.3344 9.69567" fill="#89C5CC"/>
<path fill-rule="evenodd" clip-rule="evenodd" d="M8.0066 2.34045C7.72437 2.34045 7.7261 3.74747 7.71761 3.9282C7.68694 4.58039 7.69415 5.23275 7.67475 5.88507C7.6323 7.30863 7.58015 8.74466 7.36632 10.1518C7.25119 10.9093 7.11772 11.6634 6.97414 12.4151C6.83017 13.169 6.6369 13.922 6.54217 14.6855C6.45123 15.4194 6.50262 16.1678 6.51509 16.9054C6.52757 17.6474 6.54998 18.3909 6.6472 19.1264C6.67118 19.3079 6.69931 19.4888 6.72941 19.6693C6.75448 19.8197 6.73987 20.0061 6.78228 20.1491C6.85029 20.3779 7.14178 20.4528 7.33807 20.4171C7.86919 20.3201 8.20844 19.6532 8.38988 19.1659C8.62158 18.5438 8.74451 17.8689 8.86583 17.2132C9.00329 16.4704 9.08385 15.7162 9.12164 14.9599C9.19845 13.4229 9.09987 11.8842 8.98977 10.3522C8.92853 9.5001 8.85779 8.65179 8.74954 7.805C8.64174 6.96183 8.50344 6.12242 8.41338 5.27677C8.34795 4.66222 8.28349 4.04685 8.24112 3.42995C8.23098 3.28286 8.22245 2.34045 8.0066 2.34045Z" fill="#69A1AC"/>
<path fill-rule="evenodd" clip-rule="evenodd" d="M7.65327 12.5679C7.60727 11.0907 7.01346 4.60201 6.87836 2.81565C6.84457 2.36853 6.51931 0.506876 6.47712 0C6.36272 0.14327 6.37249 2.37335 6.37375 2.88577C6.37508 3.39264 6.31222 3.89111 6.27987 4.39526C6.24692 4.90968 5.48641 11.5533 5.38772 12.0476C5.19138 13.0309 5.05998 14.04 4.95862 15.0455C4.85989 16.0255 4.70639 17.0594 4.83851 18.0445C4.86888 18.2713 4.91693 18.4944 4.99518 18.7028C5.07971 18.9279 5.13764 19.136 5.2055 19.3716C5.31469 19.751 5.51222 20.084 5.81574 20.2406C6.43801 20.5618 6.77215 19.8348 6.94154 19.2018C7.21207 18.1909 7.38569 17.1636 7.4671 16.102C7.55717 14.9275 7.69011 13.7506 7.65327 12.5679Z" fill="#89C5CC"/>
<path d="M10.5319 16.9149H1.27661C1.1591 16.9149 1.06384 17.0102 1.06384 17.1277V26.383C1.06384 26.5005 1.1591 26.5958 1.27661 26.5958H10.5319C10.6494 26.5958 10.7447 26.5005 10.7447 26.383V17.1277C10.7447 17.0102 10.6494 16.9149 10.5319 16.9149Z" fill="white"/>
<path d="M0.851064 17.9788H0.212766C0.0952586 17.9788 0 18.074 0 18.1915V29.7873C0 29.9048 0.0952586 30 0.212766 30H0.851064C0.968571 30 1.06383 29.9048 1.06383 29.7873V18.1915C1.06383 18.074 0.968571 17.9788 0.851064 17.9788Z" fill="#C5CFD6"/>
<path d="M6.17022 17.9788H5.53192C5.41441 17.9788 5.31915 18.074 5.31915 18.1915V29.7873C5.31915 29.9048 5.41441 30 5.53192 30H6.17022C6.28772 30 6.38298 29.9048 6.38298 29.7873V18.1915C6.38298 18.074 6.28772 17.9788 6.17022 17.9788Z" fill="#C5CFD6"/>
<path d="M11.5958 17.9788H10.9575C10.8399 17.9788 10.7447 18.074 10.7447 18.1915V29.7873C10.7447 29.9048 10.8399 30 10.9575 30H11.5958C11.7133 30 11.8085 29.9048 11.8085 29.7873V18.1915C11.8085 18.074 11.7133 17.9788 11.5958 17.9788Z" fill="#C5CFD6"/>
</svg>
