<svg width="23" height="28" viewBox="0 0 23 28" fill="none" xmlns="http://www.w3.org/2000/svg">
<path opacity="0.2" fill-rule="evenodd" clip-rule="evenodd" d="M6.90712 0.619992C7.08793 0.530337 7.32896 0.634317 7.22841 0.87133C7.12071 1.12513 6.72249 1.12827 6.4976 1.12324C6.52011 1.12206 6.59259 0.889317 6.61741 0.854147C6.69059 0.750399 6.79597 0.67521 6.90712 0.619992ZM4.82529 5.2445C4.76142 5.2991 4.82009 5.24962 4.82529 5.2445V5.2445ZM7.11726 1.79837C7.22538 1.8802 7.23046 2.02476 7.14206 2.12266C7.0368 2.2392 6.84471 2.23506 6.70132 2.22378C6.63646 2.21867 6.29013 2.19138 6.37225 2.13521C6.36593 2.13757 6.35274 2.14331 6.33862 2.15111C6.33101 2.1786 6.32302 2.20599 6.3147 2.23326C6.31674 2.23444 6.31847 2.23571 6.32065 2.23688C6.31829 2.23586 6.31663 2.23475 6.31456 2.23372C6.23113 2.50629 6.11244 2.76584 5.95708 3.00868C6.01517 2.986 6.07534 2.96882 6.13636 2.96116C6.31705 2.93844 6.69709 3.0773 6.49485 3.31566C6.30094 3.54417 5.99936 3.29928 5.77944 3.2656C5.56595 3.56057 5.3306 3.84328 5.08396 4.11655C5.09906 4.12123 5.11231 4.13098 5.1199 4.14617C5.21882 4.09644 5.3219 4.02531 5.41343 4.00602C5.54551 3.97822 5.81632 3.96127 5.91608 4.07829C6.03878 4.22218 5.90712 4.33918 5.76206 4.36686C5.55171 4.40701 5.27645 4.30538 5.07411 4.23672C5.05096 4.24078 5.02569 4.23409 5.0106 4.21576C5.00613 4.21431 5.00166 4.21289 4.99731 4.2115C4.74755 4.48344 4.48824 4.74641 4.23051 5.00362C4.23325 5.00348 4.23599 5.00331 4.23885 5.00316C4.30607 4.95948 4.37816 4.92363 4.4563 4.90483C4.63705 4.86112 4.84969 4.8608 4.99628 4.99023C5.14231 5.1191 5.19394 5.3446 5.04273 5.48948C4.74006 5.77948 4.29468 5.11884 4.14209 5.09133C3.88018 5.34997 3.60326 5.59163 3.32199 5.82843C3.35392 5.81879 3.38667 5.8117 3.42051 5.8085C3.69622 5.78222 4.34316 6.11662 4.00465 6.44613C3.70965 6.73327 3.36867 6.18107 3.13116 5.98801C2.86611 6.20871 2.59962 6.42791 2.34061 6.65564C2.48183 6.61843 2.6183 6.61289 2.76965 6.65812C2.92625 6.70498 3.17894 6.82198 3.07981 7.03146C2.979 7.2445 2.67554 7.14774 2.5175 7.08019C2.4313 7.04336 2.2585 6.91897 2.10676 6.86662C1.69343 7.25311 1.33536 7.67875 1.06419 8.18009C0.894904 8.49311 0.766388 8.8275 0.675873 9.17118C0.618098 9.39053 0.504293 9.75897 0.526893 10.0444C0.418769 9.47307 0.615152 8.78669 0.826587 8.27585C1.02099 7.80609 1.31179 7.39365 1.65235 7.02236C1.56707 6.76798 0.848324 6.40139 1.27823 6.1648C1.50652 6.0397 1.74017 6.24696 1.78995 6.46658C1.82414 6.61749 1.77183 6.80716 1.71635 6.95368C1.82348 6.84049 1.93485 6.73094 2.0496 6.62503C2.20818 6.47864 2.37056 6.3365 2.53449 6.19615C2.26461 5.94506 2.00943 5.22701 2.37153 5.10937C2.90623 4.93614 2.64831 5.91591 2.61093 6.09953C2.60033 6.10016 2.59208 6.09699 2.58601 6.0902C2.58901 6.10702 2.59249 6.125 2.59671 6.14312C2.91047 5.8759 3.22887 5.61392 3.5368 5.34031C3.50908 5.32003 3.46503 5.24249 3.43041 5.20122C3.35227 5.1082 3.2775 5.01102 3.22288 4.90218C3.13661 4.73018 3.05345 4.4558 3.28244 4.35448C3.53149 4.2441 3.64965 4.55442 3.65129 4.73957C3.6524 4.86763 3.61713 4.9893 3.59872 5.11482C3.59297 5.15397 3.61495 5.33042 3.56115 5.25454C3.56367 5.28253 3.56403 5.3028 3.56276 5.31717C3.61804 5.2678 3.6729 5.2179 3.72741 5.16764C3.72489 5.1613 3.72302 5.15438 3.7226 5.14636C3.71971 5.09116 3.77581 5.06987 3.81513 5.08602C3.88706 5.01832 3.95829 4.94977 4.02824 4.87986C4.17651 4.73175 4.32693 4.57942 4.47632 4.42384C4.44394 4.39629 4.45684 4.35812 4.42656 4.32888C4.39633 4.2997 4.33677 4.28359 4.30122 4.25649C4.2118 4.1883 4.13767 4.08891 4.08408 3.9911C3.9956 3.82947 3.88131 3.49038 4.14008 3.4132C4.40681 3.33351 4.54201 3.65991 4.55905 3.86401C4.56237 3.90355 4.53229 4.25986 4.50934 4.38924C4.78575 4.10011 5.05762 3.80013 5.30395 3.49495C5.22931 3.4943 5.01777 3.34296 4.97501 3.30165C4.87068 3.20091 4.70486 2.97826 4.88792 2.8603C5.0507 2.75568 5.25118 2.907 5.32069 3.05412C5.33212 3.07834 5.37233 3.30386 5.37542 3.40504C5.47738 3.27563 5.57464 3.14546 5.66513 3.01487C5.72548 2.92805 5.78188 2.83893 5.83465 2.74793C5.82196 2.74081 5.81003 2.72839 5.79876 2.71295C5.5274 2.66747 5.18162 2.2483 5.50046 2.10224C5.65226 2.03279 5.81678 2.17591 5.89107 2.29312C5.90628 2.3171 5.93089 2.43769 5.95092 2.5328C6.10276 2.23133 6.21885 1.91219 6.30724 1.58499C6.28362 1.57919 6.26362 1.56133 6.261 1.53059C6.12928 1.45627 6.02526 1.39438 5.93336 1.25138C5.87626 1.16255 5.77346 0.959605 5.94138 0.910203C6.15991 0.845925 6.29699 1.17636 6.31478 1.33914C6.31685 1.35804 6.31675 1.413 6.316 1.46336C6.32359 1.46233 6.33126 1.46244 6.33878 1.46376C6.38906 1.26115 6.42922 1.05595 6.46118 0.850401C6.34195 0.812449 6.32164 0.192199 6.40109 0.10384C6.57867 -0.0940043 6.70374 0.191598 6.69419 0.342583C6.6829 0.520609 6.60137 0.682589 6.5043 0.826357C6.49389 0.841582 6.49686 0.840842 6.49417 0.819641C6.49267 0.830121 6.48913 0.837857 6.48388 0.843462C6.48884 0.937167 6.49854 1.0331 6.49381 1.11602C6.48026 1.35349 6.45221 1.59235 6.41154 1.82678C6.40164 1.88379 6.39031 1.94035 6.37762 1.99641C6.47351 1.91549 6.60279 1.84357 6.65337 1.82107C6.78465 1.76274 6.98695 1.69974 7.11726 1.79837ZM0.505418 10.0219C0.511754 10.0982 0.530573 10.1678 0.567621 10.2249C0.540424 10.1597 0.520026 10.0917 0.505418 10.0219Z" fill="#C1DEE2"/>
<g opacity="0.5">
<path fill-rule="evenodd" clip-rule="evenodd" d="M17.2596 5.73862C17.476 5.43007 17.8776 4.64645 18.1822 4.53619C18.3783 4.46518 18.3211 5.19977 18.3236 5.33984C18.333 5.88174 18.2802 6.42021 18.2151 6.95757C18.0977 7.92669 17.7139 8.78977 17.1875 9.61459C16.9166 10.039 16.5989 10.4686 16.1588 10.7334C15.9563 10.8554 15.7125 10.8758 15.5125 10.9808C15.2795 11.1032 15.4064 11.0043 15.3014 11.2471C15.1556 11.5841 15.109 12.019 15.0415 12.3786C14.7317 14.0296 13.9818 22.7573 14.1118 24.4367C14.1234 24.5855 13.9158 24.6211 13.9055 24.4394C13.8504 23.4759 14.3269 16.8035 14.5674 14.6214C14.8078 12.4393 15.0511 10.5116 15.2951 9.75664C15.591 8.84075 16.1256 7.73932 16.5705 6.88522C16.7772 6.48842 17.0025 6.10529 17.2596 5.73862Z" fill="#69A1AC"/>
<path fill-rule="evenodd" clip-rule="evenodd" d="M18.8658 16.4408C19.4289 16.0274 20.0383 16.8076 19.5288 17.221C19.2471 17.4496 18.9526 17.3683 18.7869 17.1778C18.6792 17.309 18.5785 17.4462 18.4817 17.562C18.1868 17.9151 17.9081 18.2765 17.6417 18.6464C17.0884 19.4149 16.6142 20.2267 16.1184 21.0238C15.6291 21.8104 15.1437 22.601 14.7002 23.4075C14.3245 24.0908 13.8237 24.8947 13.6951 25.6439C13.8902 24.0551 14.6308 22.528 15.5127 21.1274C16.3874 19.7382 17.3912 18.2212 18.7456 17.1249C18.6078 16.9222 18.604 16.6329 18.8658 16.4408Z" fill="#C1DEE2"/>
<path fill-rule="evenodd" clip-rule="evenodd" d="M8.18079 12.566C8.4959 12.6277 9.01077 13.3405 9.27051 13.6121C9.57919 13.9348 9.85924 14.2788 10.1232 14.6392C10.6915 15.415 11.1998 16.2399 11.6319 17.1C12.3365 18.5022 12.901 19.9417 13.3106 21.4686C13.5614 22.4033 13.7237 23.3721 13.8199 24.3341C13.8381 24.5156 14.0283 25.9143 13.7542 25.952C13.5077 25.986 13.5838 24.8899 13.572 24.7408C13.4375 23.0588 13.0348 21.4221 12.4746 19.8367C12.3526 19.4913 12.2392 19.0683 12.0441 18.7575C11.9036 18.5337 12.0431 18.6117 11.7961 18.527C11.5841 18.4542 11.3425 18.472 11.1254 18.3829C10.6536 18.1895 10.2759 17.8139 9.94485 17.4362C9.30143 16.702 8.79155 15.9078 8.52577 14.9672C8.37834 14.4456 8.24285 13.921 8.16767 13.3833C8.14822 13.2443 7.97784 12.5263 8.18079 12.566Z" fill="#69A1AC"/>
<path fill-rule="evenodd" clip-rule="evenodd" d="M9.42427 0.70629C10.6112 2.76472 11.5866 5.02585 12.2164 7.31603C12.5979 8.70363 12.8648 10.1275 13.1299 11.5411C13.5405 13.7299 13.9288 15.9185 14.0392 18.1461C14.1504 20.3867 14.3701 22.9709 13.6364 25.1289C14.0029 22.938 13.654 20.6058 13.5922 18.4013C13.5627 17.3488 13.4771 16.3067 13.3649 15.2604C13.256 14.2455 13.0781 13.2354 12.9124 12.2284C12.8317 11.738 12.747 11.2483 12.6607 10.7589C12.6349 10.6129 12.624 10.1796 12.5314 10.0799C12.4382 9.97947 11.9625 9.93854 11.8132 9.86487C11.5125 9.71649 11.2297 9.50572 10.9794 9.28301C10.4995 8.85609 10.082 8.29827 9.75251 7.74839C8.99014 6.47604 8.68534 4.92332 8.70075 3.44978C8.70371 3.16368 9.16381 0.0829024 8.97903 0.0404775C8.99015 0.0274477 9.00068 0.013994 9.0106 0C9.1505 0.234234 9.28778 0.470055 9.42427 0.70629Z" fill="#89C5CC"/>
<path fill-rule="evenodd" clip-rule="evenodd" d="M22.2351 8.13022C22.2534 8.10381 22.3726 7.9201 22.3126 7.93184C22.4348 7.90793 22.1445 8.13445 22.449 7.99546C22.3044 8.13201 22.3879 8.30938 22.3898 8.49316C22.393 8.79153 22.343 9.08745 22.2868 9.37942C22.198 9.84093 22.0658 10.2897 21.8738 10.7189C21.4553 11.6544 20.7447 12.5549 19.901 13.1398C19.4845 13.4285 19.0764 13.5268 18.6014 13.6598C18.3014 13.7437 18.2776 13.8989 18.1183 14.1901C17.7868 14.7965 17.4611 15.4007 17.1687 16.0275C16.8196 16.776 16.4806 17.5254 16.1609 18.2871C15.0838 20.8528 14.2072 23.5109 13.7468 26.2618C13.7356 24.6407 14.1106 22.9711 14.5836 21.426C14.9282 20.3002 15.3768 19.215 15.8552 18.1407C15.9712 17.8805 16.1469 17.5457 16.1961 17.2584C16.2306 17.0571 16.1252 16.8635 16.0769 16.6514C15.8888 15.8256 15.9023 14.9004 16.0675 14.0701C16.2496 13.1546 16.7764 12.7297 17.6676 12.6001C17.9935 12.5526 18.4077 12.57 18.7066 12.431C19.0322 12.2797 19.1665 11.7823 19.3516 11.463C19.8489 10.6053 20.4397 9.78275 21.1182 9.06008C21.306 8.85996 21.508 8.67534 21.7224 8.50421C21.8575 8.39624 22.143 8.26323 22.2351 8.13022Z" fill="#89C5CC"/>
<path fill-rule="evenodd" clip-rule="evenodd" d="M12.2425 24.511H15.4051C15.5473 24.511 15.6626 24.6263 15.6626 24.7685C15.6626 24.781 15.6617 24.7936 15.6599 24.806L15.4154 26.4635C15.3409 26.9688 14.9073 27.3431 14.3966 27.3431H13.2511C12.7404 27.3431 12.3068 26.9688 12.2323 26.4635L11.9878 24.806C11.9671 24.6653 12.0643 24.5345 12.205 24.5137C12.2174 24.5119 12.23 24.511 12.2425 24.511Z" fill="#C1DEE2"/>
</g>
</svg>
