<svg width="18" height="30" viewBox="0 0 18 30" fill="none" xmlns="http://www.w3.org/2000/svg">
<path fill-rule="evenodd" clip-rule="evenodd" d="M5.95688 0.0218185C6.31796 -0.0222956 6.70334 -0.00672352 7.03914 0.135802C7.75317 0.438909 7.95614 1.28246 7.94635 1.96809C7.93579 2.70606 7.77908 3.5121 8.34014 4.1067C8.59804 4.38006 8.91886 4.58926 9.17211 4.86764C9.44271 5.16513 9.65503 5.50551 9.81224 5.87103C10.1009 6.54242 10.2426 7.33196 9.97862 8.03625C9.7462 8.65634 9.16148 9.21602 9.28782 9.92112C9.41961 10.6567 10.1612 11.219 10.6248 11.7669C11.1496 12.3869 11.6327 13.1793 11.712 13.9924C11.7881 14.7716 11.449 15.5597 10.9284 16.1487C9.88837 17.3257 8.32502 17.9027 6.74868 17.8991C6.07941 17.8976 5.32166 17.8674 4.7441 17.5077C4.5656 17.3965 4.47142 17.2718 4.36531 17.0985C4.27016 16.943 4.14448 16.8419 3.999 16.7318C3.67939 16.4902 3.44857 16.1646 3.30127 15.8C2.72927 14.3841 3.18644 12.6325 3.98712 11.3751C4.17685 11.0773 4.33218 10.7906 4.24001 10.4355C4.14383 10.0649 3.90743 9.7306 3.69835 9.412C3.49174 9.09712 3.25586 8.79673 3.09438 8.45628C2.92525 8.09964 2.87762 7.72617 2.9075 7.33585C2.96367 6.60266 3.28017 5.92607 3.72827 5.33642C4.15988 4.76847 4.66665 4.22502 4.66779 3.48082C4.66903 2.69208 4.14173 1.99044 4.36637 1.18853C4.45938 0.85647 4.64621 0.515778 4.94729 0.316705C5.23604 0.125779 5.61729 0.0633072 5.95688 0.0218185Z" fill="#DDE3E9"/>
<path fill-rule="evenodd" clip-rule="evenodd" d="M5.72093 1.28269C5.7277 1.17676 5.85336 1.11322 5.95228 1.14087C6.08248 1.17727 6.07998 1.29893 6.07654 1.40732C6.066 1.74048 6.11422 2.06427 6.19431 2.38753C6.36076 3.05964 6.66839 3.67887 6.91211 4.32448C7.15562 4.96955 7.26992 5.63556 7.12707 6.31813C6.99241 6.96171 6.78084 7.5886 6.64303 8.23298C6.52155 8.80093 6.3923 9.39985 6.57729 9.96635C6.75529 10.5116 7.14884 10.9557 7.43223 11.4485C8.01887 12.4686 8.27914 13.6003 8.31395 14.7649C8.33008 15.3057 8.31555 15.8514 8.19009 16.3818C8.11789 16.6873 8.02085 17.1 7.75914 17.3108C7.63845 17.4081 7.43205 17.4417 7.33047 17.2977C7.23511 17.1627 7.31877 16.9536 7.34905 16.8096C7.48015 16.1865 7.50653 15.5497 7.47514 14.917C7.44476 14.3041 7.37235 13.6922 7.17946 13.1069C7.00044 12.5637 6.72846 12.0758 6.40836 11.6007C6.08219 11.1164 5.7431 10.6312 5.60832 10.0574C5.47139 9.47467 5.58263 8.88171 5.73139 8.31009C5.88869 7.70549 6.09474 7.11823 6.30776 6.53C6.51536 5.95682 6.58894 5.41449 6.47434 4.81459C6.24795 3.62938 5.64198 2.51694 5.72093 1.28269Z" fill="#C5CFD6"/>
<path fill-rule="evenodd" clip-rule="evenodd" d="M15.4906 1.45994C15.9375 1.59562 16.3812 1.81452 16.6998 2.15776C17.377 2.88768 17.1692 3.99086 16.7954 4.79662C16.3929 5.66387 15.7831 6.53559 16.1268 7.53065C16.2849 7.9881 16.5506 8.40241 16.7005 8.86337C16.8606 9.35596 16.9297 9.86896 16.9209 10.383C16.9046 11.3272 16.6535 12.3346 15.9716 13.0302C15.3713 13.6426 14.3896 14.0004 14.1651 14.8999C13.9309 15.8384 14.5035 16.8892 14.7577 17.7783C15.0454 18.7845 15.1932 19.973 14.8565 20.9759C14.5339 21.937 13.7196 22.6926 12.7977 23.1184C10.9557 23.9692 8.81706 23.8383 6.97006 23.014C6.18589 22.664 5.31311 22.2341 4.82578 21.5083C4.67517 21.284 4.63064 21.0875 4.59782 20.8272C4.5684 20.5939 4.47443 20.4089 4.36195 20.2031C4.11479 19.7511 4.0162 19.2459 4.03611 18.7382C4.11359 16.7661 5.57567 14.9324 7.17936 13.862C7.55934 13.6084 7.89304 13.3502 7.97261 12.8823C8.05571 12.394 7.95514 11.8756 7.8783 11.3901C7.8024 10.9102 7.68452 10.4323 7.67506 9.94562C7.6652 9.43586 7.80674 8.96941 8.04809 8.52336C8.5015 7.68549 9.23035 7.04998 10.0676 6.58576C10.874 6.13861 11.7557 5.75955 12.1504 4.88004C12.5687 3.94789 12.3211 2.8438 13.0084 2.0123C13.293 1.66799 13.6923 1.36227 14.1506 1.28347C14.5902 1.20789 15.0704 1.33235 15.4906 1.45994Z" fill="#DDE3E9"/>
<path fill-rule="evenodd" clip-rule="evenodd" d="M14.5779 3.00138C14.6413 2.87948 14.8215 2.8701 14.9227 2.95469C15.0559 3.06604 14.9892 3.2088 14.9284 3.33536C14.7416 3.72438 14.6284 4.13309 14.5528 4.55789C14.3954 5.44106 14.4308 6.33562 14.3777 7.22791C14.3246 8.11945 14.1094 8.96808 13.5849 9.70154C13.0904 10.3931 12.5147 11.0246 12.0161 11.7155C11.5766 12.3244 11.1118 12.9659 11.0314 13.7337C10.9539 14.4728 11.1815 15.2049 11.2548 15.9371C11.4065 17.4526 11.1182 18.9292 10.549 20.3266C10.2846 20.9754 9.98177 21.6141 9.55729 22.1765C9.31291 22.5003 8.98327 22.9383 8.56682 23.0508C8.37478 23.1027 8.11582 23.0343 8.07247 22.8105C8.03169 22.6006 8.23901 22.3969 8.3498 22.2423C8.82946 21.5731 9.19381 20.8328 9.48848 20.067C9.77394 19.3253 10.0097 18.5628 10.0907 17.7685C10.1659 17.0314 10.1034 16.3111 9.97792 15.5806C9.85012 14.8362 9.70777 14.0838 9.85067 13.3337C9.99575 12.5718 10.4364 11.9279 10.9097 11.329C11.4103 10.6954 11.9588 10.108 12.5159 9.52301C13.0589 8.95303 13.4289 8.34935 13.6091 7.57886C13.9651 6.05665 13.8392 4.42164 14.5779 3.00138Z" fill="#C5CFD6"/>
<path fill-rule="evenodd" clip-rule="evenodd" d="M1.67722 7.05884C2.4202 7.05884 3.0734 7.45267 3.5235 8.01152C4.05038 8.66574 4.15679 9.46467 4.37074 10.2444C4.4772 10.6324 4.6603 11.0176 4.98118 11.2812C5.27303 11.521 5.64354 11.569 5.99288 11.6861C6.69104 11.9202 7.25479 12.4841 7.47743 13.1722C7.74905 14.0115 7.46136 14.858 7.51089 15.7086C7.55637 16.4898 8.32659 16.9771 8.94628 17.3516C9.55733 17.7209 10.1078 18.0665 10.2918 18.7859C10.487 19.5489 10.5525 20.4005 10.2822 21.1542C9.83213 22.4091 8.51502 22.9617 7.24236 23.0474C6.08737 23.1251 4.63511 23.0031 3.76773 22.1647C3.2487 21.663 3.06074 20.9613 3.08406 20.2633C3.09855 19.8292 3.18454 19.3991 3.29572 18.9796C3.37451 18.6823 3.48097 18.3862 3.5113 18.079C3.59192 17.2616 2.83646 17.1046 2.1934 16.8802C1.37626 16.595 0.804186 16.0563 0.406385 15.3057C0.0359247 14.6069 -0.119513 13.8225 0.102567 13.0531C0.215991 12.6602 0.421714 12.3038 0.700716 12.0006C0.823533 11.8672 0.996636 11.7559 1.10749 11.6157C1.21096 11.4847 1.18843 11.3151 1.15277 11.1618C0.987897 10.4535 0.474196 9.86694 0.290485 9.1599C0.124626 8.52171 0.222674 7.72744 0.806148 7.31571C1.05823 7.13781 1.36911 7.0608 1.67722 7.05884Z" fill="#C5CFD6"/>
<path fill-rule="evenodd" clip-rule="evenodd" d="M2.68962 8.90433C3.4771 9.74315 3.69115 10.8813 3.75396 11.9843C3.78915 12.6029 3.75253 13.2553 3.93426 13.8553C4.08975 14.3688 4.45428 14.7614 4.83003 15.1324C5.5864 15.8792 6.42993 16.6385 6.65116 17.7193C6.78097 18.3536 6.69335 19.0088 6.87272 19.6361C7.03581 20.2063 7.32297 20.7666 7.67225 21.2481C7.95347 21.6358 8.31985 21.9327 8.62727 22.2942C8.72106 22.4045 8.85541 22.5669 8.8167 22.7227C8.7714 22.9051 8.53905 22.9628 8.37419 22.9342C7.98982 22.8674 7.66627 22.5004 7.41495 22.2335C7.04745 21.8434 6.73517 21.4237 6.48134 20.953C6.19956 20.4302 5.97268 19.8754 5.87574 19.2889C5.77514 18.6804 5.8252 18.0463 5.59549 17.4624C5.20894 16.4798 4.27135 15.8999 3.59346 15.1341C2.74887 14.1798 2.87483 12.9922 2.96134 11.8183C3.00886 11.1732 3.0561 10.4447 2.73014 9.85577C2.60571 9.63095 2.32829 9.42132 2.27479 9.16577C2.22579 8.93163 2.49324 8.69503 2.68962 8.90433Z" fill="#AFB9C5"/>
<path fill-rule="evenodd" clip-rule="evenodd" d="M3.52942 22.6891C3.52947 27.4864 4.31235 30 8.4454 30C12.5784 30 13.3613 27.4864 13.3614 22.6891H3.52942Z" fill="#89C5CC"/>
</svg>
