<svg width="130" height="130" viewBox="0 0 130 130" fill="none" xmlns="http://www.w3.org/2000/svg">
<g filter="url(#filter0_d_2193_11405)">
<mask id="mask0_2193_11405" style="mask-type:luminance" maskUnits="userSpaceOnUse" x="4" y="0" width="122" height="122">
<path d="M125.999 60.9996C125.999 27.3104 98.6888 0 64.9996 0C31.3105 0 4 27.3104 4 60.9996C4 94.6887 31.3105 122 64.9996 122C98.6888 122 125.999 94.6887 125.999 60.9996Z" fill="white"/>
</mask>
<g mask="url(#mask0_2193_11405)">
<path d="M125.999 60.9996C125.999 27.3104 98.6888 0 64.9996 0C31.3105 0 4 27.3104 4 60.9996C4 94.6887 31.3105 122 64.9996 122C98.6888 122 125.999 94.6887 125.999 60.9996Z" fill="#FF9040"/>
<g filter="url(#filter1_d_2193_11405)">
<path d="M23.1604 31.2979C23.1604 24.2655 107.541 24.2655 107.541 31.2979C114.572 31.2979 114.572 129.75 107.541 129.75C107.541 136.782 23.1604 136.782 23.1604 129.75C16.1288 129.75 16.1288 31.2979 23.1604 31.2979Z" fill="#FFDABF"/>
</g>
<path d="M46.7022 79.2997C56.8089 79.2997 65.0021 71.1065 65.0021 60.9999C65.0021 50.893 56.8089 42.7 46.7022 42.7C36.5954 42.7 28.4023 50.893 28.4023 60.9999C28.4023 71.1065 36.5954 79.2997 46.7022 79.2997Z" fill="white"/>
<path d="M83.2999 79.2997C93.4067 79.2997 101.6 71.1065 101.6 60.9999C101.6 50.893 93.4067 42.7 83.2999 42.7C73.1932 42.7 65 50.893 65 60.9999C65 71.1065 73.1932 79.2997 83.2999 79.2997Z" fill="white"/>
<path d="M46.6987 71.9793C52.7628 71.9793 57.6786 67.0633 57.6786 60.9994C57.6786 54.9352 52.7628 50.0194 46.6987 50.0194C40.6347 50.0194 35.7188 54.9352 35.7188 60.9994C35.7188 67.0633 40.6347 71.9793 46.6987 71.9793Z" fill="#401B00"/>
<path d="M83.3022 71.9793C89.3663 71.9793 94.2821 67.0633 94.2821 60.9994C94.2821 54.9352 89.3663 50.0194 83.3022 50.0194C77.2382 50.0194 72.3223 54.9352 72.3223 60.9994C72.3223 67.0633 77.2382 71.9793 83.3022 71.9793Z" fill="#401B00"/>
<path d="M46.6992 99.4996C47.8038 99.4996 48.6992 97.7088 48.6992 95.4996C48.6992 93.2905 47.8038 91.4996 46.6992 91.4996C45.5946 91.4996 44.6992 93.2905 44.6992 95.4996C44.6992 97.7088 45.5946 99.4996 46.6992 99.4996Z" fill="#401B00"/>
<path d="M51.2734 101.5C52.378 101.5 53.2734 98.8133 53.2734 95.4996C53.2734 92.1859 52.378 89.4996 51.2734 89.4996C50.1689 89.4996 49.2734 92.1859 49.2734 95.4996C49.2734 98.8133 50.1689 101.5 51.2734 101.5Z" fill="#401B00"/>
<path d="M55.8496 103.5C56.9542 103.5 57.8496 99.9179 57.8496 95.4996C57.8496 91.0814 56.9542 87.4996 55.8496 87.4996C54.745 87.4996 53.8496 91.0814 53.8496 95.4996C53.8496 99.9179 54.745 103.5 55.8496 103.5Z" fill="#401B00"/>
<path d="M60.4238 105.5C61.5284 105.5 62.4238 101.022 62.4238 95.4996C62.4238 89.9768 61.5284 85.4996 60.4238 85.4996C59.3193 85.4996 58.4238 89.9768 58.4238 95.4996C58.4238 101.022 59.3193 105.5 60.4238 105.5Z" fill="#401B00"/>
<path d="M65 107.5C66.1046 107.5 67 102.127 67 95.4996C67 88.8722 66.1046 83.4996 65 83.4996C63.8954 83.4996 63 88.8722 63 95.4996C63 102.127 63.8954 107.5 65 107.5Z" fill="#401B00"/>
<path d="M69.5742 105.5C70.6788 105.5 71.5742 101.022 71.5742 95.4996C71.5742 89.9768 70.6788 85.4996 69.5742 85.4996C68.4696 85.4996 67.5742 89.9768 67.5742 95.4996C67.5742 101.022 68.4696 105.5 69.5742 105.5Z" fill="#401B00"/>
<path d="M74.1484 103.5C75.253 103.5 76.1484 99.9179 76.1484 95.4996C76.1484 91.0814 75.253 87.4996 74.1484 87.4996C73.0439 87.4996 72.1484 91.0814 72.1484 95.4996C72.1484 99.9179 73.0439 103.5 74.1484 103.5Z" fill="#401B00"/>
<path d="M78.7246 101.5C79.8292 101.5 80.7246 98.8133 80.7246 95.4996C80.7246 92.1859 79.8292 89.4996 78.7246 89.4996C77.62 89.4996 76.7246 92.1859 76.7246 95.4996C76.7246 98.8133 77.62 101.5 78.7246 101.5Z" fill="#401B00"/>
<path d="M83.2988 99.4996C84.4034 99.4996 85.2988 97.7088 85.2988 95.4996C85.2988 93.2905 84.4034 91.4996 83.2988 91.4996C82.1943 91.4996 81.2988 93.2905 81.2988 95.4996C81.2988 97.7088 82.1943 99.4996 83.2988 99.4996Z" fill="#401B00"/>
</g>
</g>
<defs>
<filter id="filter0_d_2193_11405" x="0" y="0" width="129.998" height="130" filterUnits="userSpaceOnUse" color-interpolation-filters="sRGB">
<feFlood flood-opacity="0" result="BackgroundImageFix"/>
<feColorMatrix in="SourceAlpha" type="matrix" values="0 0 0 0 0 0 0 0 0 0 0 0 0 0 0 0 0 0 127 0" result="hardAlpha"/>
<feOffset dy="4"/>
<feGaussianBlur stdDeviation="2"/>
<feComposite in2="hardAlpha" operator="out"/>
<feColorMatrix type="matrix" values="0 0 0 0 0 0 0 0 0 0 0 0 0 0 0 0 0 0 0.15 0"/>
<feBlend mode="normal" in2="BackgroundImageFix" result="effect1_dropShadow_2193_11405"/>
<feBlend mode="normal" in="SourceGraphic" in2="effect1_dropShadow_2193_11405" result="shape"/>
</filter>
<filter id="filter1_d_2193_11405" x="17.8867" y="26.0236" width="107.554" height="121.626" filterUnits="userSpaceOnUse" color-interpolation-filters="sRGB">
<feFlood flood-opacity="0" result="BackgroundImageFix"/>
<feColorMatrix in="SourceAlpha" type="matrix" values="0 0 0 0 0 0 0 0 0 0 0 0 0 0 0 0 0 0 127 0" result="hardAlpha"/>
<feOffset dx="6.31303" dy="6.31303"/>
<feGaussianBlur stdDeviation="3.15651"/>
<feComposite in2="hardAlpha" operator="out"/>
<feColorMatrix type="matrix" values="0 0 0 0 0 0 0 0 0 0 0 0 0 0 0 0 0 0 0.5 0"/>
<feBlend mode="normal" in2="BackgroundImageFix" result="effect1_dropShadow_2193_11405"/>
<feBlend mode="normal" in="SourceGraphic" in2="effect1_dropShadow_2193_11405" result="shape"/>
</filter>
</defs>
</svg>
